<svg xmlns="http://www.w3.org/2000/svg" viewBox="0 0 600 300" width="600" height="300">
  <rect width="100%" height="100%" fill="#222" />

  <!-- 左侧安卓机器人图标，放大并平移 -->
  <g transform="translate(100,50) scale(1.5)">
    <path fill="#A4C439" d="M21.004 43.005c-4.053-.002-7.338 3.291-7.339 7.341l.005 30.736a7.338 7.338 0 007.342 7.343 7.33 7.33 0 007.338-7.342V50.342a7.345 7.345 0 00-7.346-7.337m59.192-27.602l5.123-9.355a1.023 1.023 0 00-.401-1.388 1.022 1.022 0 00-1.382.407l-5.175 9.453c-4.354-1.938-9.227-3.024-14.383-3.019-5.142-.005-10.013 1.078-14.349 3.005l-5.181-9.429a1.01 1.01 0 00-1.378-.406 1.007 1.007 0 00-.404 1.38l5.125 9.349c-10.07 5.193-16.874 15.083-16.868 26.438l66.118-.008c.003-11.351-6.789-21.221-16.845-26.427M48.94 29.86a2.772 2.772 0 01.003-5.545 2.78 2.78 0 012.775 2.774 2.775 2.775 0 01-2.778 2.771m30.107-.006a2.77 2.77 0 01-2.772-2.771 2.793 2.793 0 012.773-2.778 2.79 2.79 0 012.767 2.779 2.767 2.767 0 01-2.768 2.77M31.193 44.392l.011 47.635a7.822 7.822 0 007.832 7.831l5.333.002.006 16.264c-.001 4.05 3.291 7.342 7.335 7.342 4.056 0 7.342-3.295 7.343-7.347l-.004-16.26 9.909-.003.004 16.263c0 4.047 3.293 7.346 7.338 7.338 4.056.003 7.344-3.292 7.343-7.344l-.005-16.259 5.352-.004a7.835 7.835 0 007.836-7.834l-.009-47.635-65.624.011zm83.134 5.943a7.338 7.338 0 00-7.341-7.339c-4.053-.004-7.337 3.287-7.337 7.342l.006 30.738a7.334 7.334 0 007.339 7.339 7.337 7.337 0 007.338-7.343l-.005-30.737z"/>
  </g>

  <!-- 右侧天气图标，放大并平移 -->
  <g transform="translate(320,60) scale(7)">
    <path fill="#FFFFFF" d="M13.55,2.66C13,2.42 12.45,2.26 11.88,2.15L14.37,0.84L15.27,3.73C14.76,3.31 14.19,2.95 13.55,2.66M6.09,3.46C5.6,3.81 5.17,4.21 4.8,4.66L4.91,1.84L7.87,2.53C7.25,2.73 6.65,3.05 6.09,3.46M18,8.73C17.91,8.15 17.78,7.57 17.59,7.03L19.97,8.53L17.92,10.76C18.03,10.1 18.05,9.42 18,8.73M3.04,10.32C3.11,10.92 3.25,11.5 3.43,12.03L1.06,10.53L3.1,8.3C3,8.95 2.97,9.64 3.04,10.32M16.68,22.21C16.68,23.2 15.91,24 14.95,24C14,24 13.23,23.2 13.23,22.21C13.23,21.03 14.95,19.03 14.95,19.03C14.95,19.03 16.68,21.03 16.68,22.21M6.03,21.45C5.93,21.07 6.15,20.68 6.54,20.58L8.13,20.15L6.96,19C6.68,18.72 6.68,18.27 6.96,18C7.23,17.7 7.7,17.7 8,18L9.14,19.14L9.55,17.56C9.65,17.17 10.05,16.94 10.43,17.05C10.82,17.15 11.05,17.55 10.93,17.93L10.5,19.5L12.1,19.1C12.5,19 12.88,19.21 13,19.6C13.08,19.97 12.86,20.37 12.47,20.47L10.89,20.89L12.05,22.05C12.33,22.32 12.33,22.79 12.05,23.07C11.77,23.35 11.31,23.35 11.03,23.07L9.87,21.9L9.45,23.5C9.35,23.88 8.95,24.1 8.57,24C8.18,23.9 7.97,23.5 8.06,23.12L8.5,21.55L6.91,21.96C6.5,22.06 6.13,21.84 6.03,21.45M19,15.03C18.65,15.03 18.31,15.08 18,15.19V15.03C18,13.21 17.19,11.58 15.92,10.5C16.35,8.05 15.1,5.53 12.75,4.5C9.97,3.27 6.72,4.53 5.5,7.28C4.6,9.27 5,11.47 6.27,13.03H6C3.79,13.03 2,14.81 2,17.03C2,18.17 2.5,19.2 3.27,19.93V19.93C3.27,19.93 3.97,20.64 4.68,19.93C5.39,19.22 4.68,18.5 4.68,18.5C4.27,18.15 4,17.62 4,17.03C4,15.92 4.9,15.03 6,15.03H8C8,12.81 9.79,11.03 12,11.03A4,4 0,0 1,16 15.03V17.03H19A1,1 0,0 1,20 18.03C20,18.57 19.55,19.03 19,19.03H18C18,19.03 17,19.03 17,20.03C17,21.03 18,21.03 18,21.03H19A3,3 0,0 0,22 18.03C22,16.37 20.66,15.03 19,15.03M12,9.03C10.16,9.03 8.5,9.85 7.41,11.16C6.93,10.25 6.85,9.11 7.31,8.09C8.09,6.33 10.16,5.53 11.93,6.32C13.18,6.89 13.94,8.08 14,9.37C13.38,9.15 12.7,9.03 12,9.03Z"/>
  </g>
</svg>
