<svg xmlns="http://www.w3.org/2000/svg" viewBox="0 0 300 150" width="600" height="300">
  <!-- 蓝色背景 -->
  <rect width="300" height="150" fill="#3498db"></rect>

  <!-- 缩小且左上平移的 Angular 图标 -->
  <g transform="translate(35,15) scale(0.9)">
    <path style="stroke:none;fill-rule:nonzero;fill:#dd0031;" d="M64 15.359375L16.332031 32.359375L23.601562 95.386719L64 117.761719L104.398438 95.386719L111.667969 32.359375Z"></path>
    <path style="stroke:none;fill-rule:nonzero;fill:#c3002f;" d="M64 15.359375L64 117.761719L104.398438 95.386719L111.667969 32.359375Z"></path>
    <path style="stroke:none;fill-rule:nonzero;fill:#fff;" d="M64 26.675781L34.203125 93.492188H45.3125L51.300781 78.539062H76.59375L82.585938 93.492188H93.695312L64 26.675781ZM72.703125 69.324219H55.296875L64 48.382812Z"></path>
  </g>

  <!-- 太阳云图标 -->
  <g transform="translate(155,25) scale(2.5)">
    <path fill="#FFAC33" d="M16 2s0-2 2-2 2 2 2 2v2s0 2-2 2-2-2-2-2V2zm18 14s2 0 2 2-2 2-2 2h-2s-2 0-2-2 2-2 2-2h2zM4 16s2 0 2 2-2 2-2 2H2s-2 0-2-2 2-2 2-2h2zm5.121-8.707s1.414 1.414 0 2.828-2.828 0-2.828 0L4.878 8.708s-1.414-1.414 0-2.829c1.415-1.414 2.829 0 2.829 0l1.414 1.414zm20.587 2.828s-1.414 1.414-2.828 0 0-2.828 0-2.828l1.414-1.414s1.414-1.414 2.828 0 0 2.828 0 2.828l-1.414 1.414zm-21 21s-1.414 1.414-2.828 0 0-2.828 0-2.828l1.414-1.414s1.414-1.414 2.828 0 0 2.828 0 2.828l-1.414 1.414z"></path>
    <circle fill="#FFAC33" cx="18" cy="18" r="10"></circle>
    <path fill="#E1E8ED" d="M29.777 23.2c-.642 0-1.26.1-1.843.285-.688-2.028-2.56-3.485-4.767-3.485-2.368 0-4.35 1.678-4.899 3.937-.586-.456-1.309-.736-2.101-.736-1.933 0-3.5 1.611-3.5 3.6 0 .483.096.941.264 1.363-.334-.097-.679-.164-1.042-.164C9.741 28 8 29.791 8 32s1.741 4 3.889 4h17.889C33.214 36 36 33.136 36 29.6c0-3.535-2.786-6.4-6.223-6.4z"></path>
  </g>
</svg>
